<svg xmlns="http://www.w3.org/2000/svg" width="1024" height="1024" xmlns:v="https://vecta.io/nano"><g transform="matrix(5.461332 0 0 -5.461332 765.423932 2013.634426)"><circle cx="-46.403" cy="-274.958" transform="scale(1 -1)" r="90" fill="#ffe6d5" fill-rule="evenodd"/><path d="M-108.102 258.507l16.177 19.001 121.483.403-15.767-19.404h-121.893" fill="#83331b"/><path d="M-108.101 258.507v-51.063c9.221-.41 16.254-3.919 16.264-8.115H2.492c-.746 1.07-1.131 2.225-1.131 3.393.002 4.411 5.399 8.089 12.431 8.47v47.316z" fill="#f8a37b"/><path d="M-38.324 249.896c1.962 1.06 4.991 4.244 3.122 7.428-.346.589-.684.968-1.008 1.183h8.145c-1.06-2.333-4.89-5.155-4.89-5.155s-.313-.606-2.011-1.941c-.961-.754-2.341-1.237-3.358-1.515m-24.041.131c-1.001.465-2.455 1.262-3.478 2.348-1.708 1.813-2.052 4.191-2.052 4.191l-1.208 1.941h4.853c-.324-.215-.661-.594-1.007-1.183-1.797-3.062.935-6.124 2.892-7.297m22.287.961c-1.065.104-3.04.372-5.015 1.03-2.911.97-4.609 3.153-4.609 3.153s-3.275-2.001-7.641-2.796c-1.458-.265-2.408-.354-3.028-.354h-.029c-.087 1.464-.387 3.029-.387 3.029s-.827 2.653-2.068 3.457h5.168 20.083c-1.241-.804-2.069-3.457-2.069-3.457s-.464-2.425-.405-4.062" fill="#da845d"/><path d="M-60.787 255.05s.923-4.821 0-5.458-6.926 3.548-4.47 7.732 4.47-2.274 4.47-2.274m21.114 0s-.922-4.821 0-5.458 6.927 3.548 4.471 7.732-4.471-2.274-4.471-2.274" fill="#dee6e3"/><path d="M-75.274 295.46a9.87 9.87 0 0 0-7.637-11.683 9.87 9.87 0 1 0-4.045 19.32 9.87 9.87 0 0 0 11.682-7.637" fill="#d4541e"/><path d="M-79.137 301.411c-2.176 1.581-4.979 2.281-7.819 1.686a9.87 9.87 0 0 1-7.637-11.683c.243-1.161.69-2.224 1.282-3.177 4.349 1.479 10.933 5.007 14.174 13.174" fill="#852e1b"/><path d="M-79.556 294.563c.621-2.97-1.282-5.881-4.252-6.503s-5.881 1.281-6.503 4.251 1.282 5.881 4.251 6.503 5.882-1.281 6.504-4.251" fill="#fff"/><path d="M-11.971 297.295c-2.292 0-4.427 1.456-5.185 3.752-.941 2.854.602 5.932 3.449 6.887 1.578.545 9.258 3.6 6.96 10.765-1.66 5.18-4.8 5.934-14.08 6.919l-5.289.629c-6.567.938-11.396 3.654-14.351 8.072-4.312 6.445-2.622 13.751-2.415 14.562.744 2.922 3.717 4.683 6.64 3.943a5.46 5.46 0 0 0 3.942-6.64c.002 0-.74-3.391.946-5.845 1.168-1.701 3.45-2.804 6.783-3.281 1.632-.233 3.292-.409 4.897-.58 8.623-.915 19.355-2.056 23.327-14.443 4.228-13.187-6.004-21.855-13.912-24.464a5.47 5.47 0 0 0-1.712-.276" fill="#e2591e"/><path d="M-31.354 340.339l-.162.262c-3.6-2.3-8.146-2.791-10.691-2.868a16.51 16.51 0 0 1 1.74-3.414c.966-1.445 2.153-2.688 3.516-3.766 4.784.793 8.636 4.38 10.757 6.815-2.455.573-4.194 1.564-5.16 2.971m11.595-14.838c3.913-.433 6.655-.862 8.622-1.688 1.349 2.24 3.232 5.957 3.93 10.147-2.897 1.167-6.016 1.739-9.03 2.126.263-2.716.078-7.398-3.522-10.585m23.915-13.51c.613 2.488.673 5.256-.025 8.278a11.04 11.04 0 0 0-4.202-2.11c-2.954-.768-5.066-.721-6.408-.509.581-2.947-.577-5.128-2.15-6.674 4.852-2.119 9.593-.653 12.785 1.015" fill="#852e1b"/><path d="M-6.447 314.857c.003.068.015.132.025.197l.001.002.028.238c.031.251.052.506.056.77l.001.16c-.004.338-.027.685-.081 1.047l.001-.001c-.066.45-.167.916-.322 1.404a9.69 9.69 0 0 0 .265-1.025c.195-1.02.188-1.949.026-2.792m-.292 3.82c-.003.007-.005.015-.008.022-.856 2.671-2.105 4.165-4.386 5.121h0c2.281-.956 3.53-2.45 4.386-5.121.003-.007.005-.015.008-.022m-13.018 6.825l-1.07.116-5.29.629-.146.022.147-.022 5.289-.629 1.07-.116h0m-6.54.772l-.023.003.023-.003m-.075.011" fill="#83bad2"/><path d="M3.323 309.507l-1.865 1.311c.962.334 1.851.733 2.646 1.146.013-.008.025-.017.037-.026a16.41 16.41 0 0 0-.818-2.431m-7.988 8.008c-.71 0-1.312.056-1.808.134a9.69 9.69 0 0 1-.265 1.025l-.009.025c-.856 2.671-2.105 4.165-4.386 5.121.494.82 1.059 1.839 1.612 3.006 2.749-1.108 4.625-2.821 6.016-5.603.566-1.131.757-2.351.695-3.592-.685-.082-1.303-.116-1.855-.116m-15.092 7.987l-1.07.116-5.289.629-.147.022a.4.4 0 0 0-.034.005l-.023.003-.052.008c-4.881.737-8.772 2.481-11.643 5.178.341-.316.696-.619 1.064-.91a12.79 12.79 0 0 1 1.664.394c2.752-.893 6.221-1.645 10.437-1.887 2.795-.16 5.246-.326 7.403-.556-.54-1.068-1.287-2.095-2.31-3.002" fill="#ba4a1f"/><path d="M-36.951 330.553l-1.064.91-.883.893c1.024-.474 2.227-.959 3.611-1.409a12.79 12.79 0 0 0-1.664-.394m25.818-6.733c-1.97.825-4.707 1.249-8.624 1.682h0c1.023.907 1.77 1.934 2.31 3.002 3.255-.346 5.842-.838 7.926-1.678-.553-1.167-1.118-2.186-1.612-3.006h0m12.591-13.002c-2.431 1.612-5.063 2.99-7.905 4.039.162.843.169 1.772-.032 2.793.502-.079 1.104-.135 1.814-.135.552 0 1.17.034 1.855.116a10.66 10.66 0 0 0-.219-1.652c2.551-1.103 4.934-2.454 7.133-4.015-.795-.413-1.684-.812-2.646-1.146" fill="#6f2717"/><path d="M1.956 321.14s-4.428 6.195-10.044 9.266a25.89 25.89 0 0 1 .617 2.217c.927-.436 1.771-.935 2.477-1.507 4.964-4.019 6.95-9.976 6.95-9.976m-18.127 12.572c-3.248 1.173-5.535 1.865-5.535 1.865s2.427-.091 5.54-.568a16.57 16.57 0 0 0-.005-1.297" fill="#e66733"/><path d="M-8.088 330.406l-1.456.71-6.627 2.596.005 1.297c2.763-.423 6.066-1.15 8.695-2.386l-.617-2.217" fill="#94401d"/><path d="M-57.687 303.784s14.474 17.064 43.825 12.94 40.267-42.45 40.267-42.45l-12.614-15.767h-71.478v45.277" fill="#ef5d22"/><path d="M-53.065 307.89c3.118.854 8.074 1.536 15.715 1.011 18.532-1.273 42.591-30.99 42.591-30.99s-10.668 33.893-44.619 36.942c-6.085-1.951-10.642-4.693-13.687-6.963" fill="#852e1b"/><path d="M5.028 263.299H.844c-1.15 3.215-6.923 18.376-16.161 26.318-7.613 6.544-18.654 14.166-32.41 14.879a40.95 40.95 0 0 0 2.092.054c9.919 0 18.501-3.657 25.49-8.144.021.129.034.258.061.388a9.77 9.77 0 0 0 1.665 3.758c5.534-3.983 10.713-8.764 14.808-12.906a9.89 9.89 0 0 0-3.497-2.159c6.883-8.215 11.163-19.471 12.136-22.188m-6.338 27.706c-2.837 4.334-6.709 9.107-11.819 13.25a11.46 11.46 0 0 0 .451.116l.167.041c.259.056.521.099.786.134l.227.033c.249.027.501.04.754.048.091.003.181.012.273.012h.023c.245 0 .492-.016.74-.034.09-.006.18-.006.271-.015.344-.035.689-.086 1.035-.159a9.87 9.87 0 0 0 7.637-11.682c-.117-.56-.289-1.092-.492-1.606l-.034-.091c-.006-.016-.012-.031-.019-.047" fill="#c74d1f"/><path d="M-3.611 287.646c-4.095 4.142-9.274 8.923-14.808 12.906a9.94 9.94 0 0 0 2.198 2.193h0a9.72 9.72 0 0 0 .835.545l.017.01c.278.161.564.309.857.443l.053.025a9.78 9.78 0 0 0 .852.335l.105.038c.124.04.248.078.373.114 5.11-4.143 8.982-8.916 11.819-13.25-.207-.503-.456-.98-.737-1.433v-.001c-.442-.711-.969-1.357-1.564-1.925" fill="#6f2717"/><path d="M-24.269 296.794a9.87 9.87 0 1 1 19.32-4.045 9.87 9.87 0 0 1-7.637 11.682c-5.335 1.117-10.565-2.302-11.683-7.637" fill="#d4541e"/><path d="M-20.406 302.745c2.176 1.581 4.98 2.281 7.82 1.686a9.87 9.87 0 0 0 7.637-11.682c-.243-1.162-.691-2.225-1.282-3.178-4.35 1.48-10.934 5.007-14.175 13.174" fill="#852e1b"/><path d="M-19.986 295.897c-.622-2.969 1.282-5.881 4.251-6.503s5.881 1.282 6.503 4.251-1.281 5.882-4.251 6.504-5.881-1.282-6.503-4.252" fill="#fff"/><path d="M-95.609 258.507l-4.852 4.94s15.465 31.449 36.75 38.724 38.024-3.64 48.394-12.554 16.373-26.926 16.373-26.926l-3.82-4.184h-92.845" fill="#f46a2f"/><path d="M-71.124 289.571s17.435 13.737 20.853 13.737 20.078-12.054 20.078-12.054l-2.762-3.317s-14.548 11.807-17.316 11.807-16.459-11.807-16.459-11.807l-4.394 1.634m8.639-5.278s10.016 8.491 12.885 8.491 12.401-7.399 12.401-7.399l-2.597-5.067s-7.579 8.22-9.804 8.22-10.777-7.641-10.777-7.641l-2.108 3.396" fill="#852e1b"/><path d="M-100.461 263.447l13.49 4.52s-4.302 14.009 8.251 20.74 18.102-.182 19.83-4.184 1.729-14.555 1.729-14.555h14.954s-.157 15.707 6.271 20.194 16.095 5.094 19.873-3.274 0-15.646 0-15.646l17.119-8.551-3.82-4.184h-92.845l-4.852 4.94" fill="#fff"/><path d="M-60.787 277.911c0-3.282-2.66-5.943-5.943-5.943s-5.943 2.661-5.943 5.943 2.661 5.943 5.943 5.943 5.943-2.661 5.943-5.943" fill="#fddd04"/><use href="#B" fill="#391913"/><path d="M-67.622 280.554a1.75 1.75 0 1 0-3.502 0 1.75 1.75 0 1 0 3.502 0" fill="#fff"/><path d="M-27.012 277.911c0-3.282-2.661-5.943-5.943-5.943s-5.943 2.661-5.943 5.943 2.661 5.943 5.943 5.943 5.943-2.661 5.943-5.943" fill="#fddd04"/><use href="#B" x="33.775" fill="#391913"/><path d="M-33.847 280.554a1.75 1.75 0 1 0-3.503 0 1.75 1.75 0 1 0 3.503 0" fill="#fff"/><path d="M13.791 258.507H1.42l3.821 4.184-.213.608h8.763l11.536 14.197 1.078-3.222h0 0l-12.614-15.767" fill="#c74d1f"/><path d="M1.42 258.507h-4.184l3.82 4.184-.212.608h4.184l.213-.608-3.821-4.184" fill="#a33f1e"/><path d="M1.056 262.691l-1.217.608H.844l.212-.608" fill="#de581d"/><path d="M-2.764 258.507h-92.845l-4.706 4.792H-.161l1.217-.608-3.82-4.184" fill="#d5d0cd"/><path d="M-58.975 271.483s-5.68-1.462-7.755-6.855.745-9.305 5.475-10.397 11.553 2.456 11.553 2.456 5.602-5.458 12.352-4.093 8.934 9.096 5.659 13.736-11.28 5.153-11.28 5.153-12.179-3.488-16.004 0" fill="#fff"/><path d="M-49.702 256.687s.282-.27.773-.664v8.605a.67.67 0 0 1-.671.671c-.369 0-.671-.301-.671-.671v-8.217l.569.276" fill="#a6b9b5"/><path d="M-42.306 265.564s4.394 5.176 1.554 7.403-5.535-1.611-9.101-1.267-7.301 3.095-8.825.572 2.303-5.562 2.303-5.562.908 2.659 3.196 1.379.361-3.99.361-3.99 1.685-1.104 3.059-1.331 3.509 1.549 3.509 1.549-1.109 3.074 1.246 4.262 2.698-3.015 2.698-3.015m-43.599 15.964s-3.367-4.374-3.094-10.832 9.56-12.189 9.56-12.189l-3.656 5.688a3.29 3.29 0 0 0 .717 4.353l5.659 4.513s-7.641-2.456-8.914-.637-.272 9.104-.272 9.104m70.447 3.852s-.525-5.679-1.92-8.498-6.217-1.547-6.217-1.547 5.367-2.729 5.367-4.457-3.639-7.186-3.639-7.186 11.817 7.446 6.409 21.688m-70.569-26.873s-2.365 1.758-3.882 4.245-2.001 4.002-2.001 4.002-.182-3.275.728-5.458 1.637-2.789 1.637-2.789h3.518m72.286 0s2.209 1.81 4.124 5.185 2.608 7.791 2.608 7.791.909-6.366.303-9.095-1.577-3.881-1.577-3.881h-5.458m8.953 55.667c-2.809 1.198-5.822 2.093-9.074 2.55a65.16 65.16 0 0 1-7.739.628c4.835-1.15 14.841-4.264 22.793-11.581 10.901-10.029 15.146-19.22 15.146-19.22s-6.557 18.098-21.126 27.623m6.744-12.223s7.105-5.586 11.35-16.571 4.124-13.897 4.124-13.897L-.642 294.165l12.008-11.037s-.486 6.443-9.41 18.823" fill="#852e1b"/><path d="M29.559 277.911l-15.768-19.403v-44.944c1.185 1.576 2.607 2.423 4.065 2.423 1.389 0 2.746-.768 3.898-2.208l7.805 14.164z" fill="#f6854f"/><path d="M-3.31 240.435h7.034v5.97h3.188l-6.705 7.626-6.705-7.626h3.188v-5.97m3.517-1.815h-6.705v-2.309h13.41v2.309H.207" fill="#852e1b"/><path d="M-4.287 310.02c-3.321 1.214-7.933 2.459-13.091 2.58l-2.015.023c-2.736 0-5.535-.12-8.147-.292-1.365.475-2.782.899-4.25 1.261 3.254.749 7.275 1.374 11.627 1.374a43.59 43.59 0 0 0 3.511-.14c1.663-.135 3.198-.364 4.61-.658 2.489-1.076 5.144-2.437 7.755-4.148" fill="#f06c34"/><path d="M-39.796 311.084s3.151 1.392 8.006 2.508l4.25-1.261c-6.75-.447-12.256-1.247-12.256-1.247m40.852-3.456s-2.028 1.18-5.343 2.392c-2.611 1.711-5.266 3.072-7.755 4.148 9.116-1.899 13.098-6.54 13.098-6.54" fill="#94401d"/><path d="M-46.403 368.708a93.75 93.75 0 0 1 0-187.5 93.75 93.75 0 0 1 0 187.5zm0-18.75a75 75 0 1 0 0-150 75 75 0 1 0 0 150z" fill="#e66001" fill-rule="evenodd"/><path d="M-31.354 340.339c-1.686 2.454-.944 5.845-.946 5.845a5.46 5.46 0 0 1-3.942 6.64c-2.923.74-5.896-1.021-6.64-3.943-.2-.781-1.757-7.578 1.972-13.834 2.907.545 7.163 1.779 10.204 4.534-.24.239-.463.488-.648.758" fill="#fff"/></g><defs ><path id="B" d="M-62.485 277.911c0-2.344-1.901-4.245-4.245-4.245s-4.244 1.901-4.244 4.245 1.9 4.244 4.244 4.244 4.245-1.9 4.245-4.244"/></defs></svg>