<?xml version="1.0" standalone="no"?>
<!DOCTYPE svg PUBLIC "-//W3C//DTD SVG 20010904//EN"
 "http://www.w3.org/TR/2001/REC-SVG-20010904/DTD/svg10.dtd">
<svg version="1.0" xmlns="http://www.w3.org/2000/svg"
 width="1024.000000pt" height="1024.000000pt" viewBox="0 0 1024.000000 1024.000000"
 preserveAspectRatio="xMidYMid meet">
<metadata>
Created by potrace 1.11, written by Peter Selinger 2001-2013
</metadata>
<g transform="translate(0.000000,1024.000000) scale(0.100000,-0.100000)"
fill="#000000" stroke="none">
<path d="M4855 10234 c-211 -16 -329 -28 -450 -45 -1928 -274 -3532 -1612
-4144 -3459 -121 -363 -203 -759 -243 -1165 -16 -169 -16 -721 0 -890 114
-1170 582 -2217 1367 -3055 1168 -1248 2897 -1833 4580 -1549 524 88 1051 264
1515 506 1926 1004 3009 3105 2710 5253 -146 1043 -617 2027 -1336 2791 -866
920 -2007 1477 -3274 1599 -115 11 -631 21 -725 14z m881 -887 c62 -31 119
-95 141 -157 l16 -45 191 -47 c933 -229 1739 -759 2313 -1523 470 -626 758
-1403 809 -2188 l7 -108 -92 3 -92 3 -50 125 c-107 269 -261 562 -426 813
-184 279 -397 524 -613 702 -52 44 -94 84 -94 89 1 6 14 52 28 101 52 174 45
374 -19 569 -99 304 -269 507 -529 630 -176 84 -328 120 -691 161 -311 35
-371 44 -435 62 -78 22 -150 56 -187 87 l-32 27 -63 -47 c-74 -54 -164 -101
-265 -137 -81 -29 -179 -56 -216 -59 l-25 -2 31 -46 c146 -215 382 -361 689
-424 42 -9 192 -29 335 -46 407 -48 537 -76 638 -134 115 -68 195 -225 195
-382 l0 -73 -86 29 c-209 71 -461 104 -784 104 -124 0 -277 -6 -340 -13 -612
-67 -1125 -291 -1530 -666 -65 -61 -65 -61 -193 -93 -272 -68 -523 -187 -746
-352 l-78 -57 -19 55 c-25 75 -79 156 -146 219 -244 229 -633 176 -820 -111
-56 -87 -80 -171 -80 -286 0 -162 56 -288 178 -399 57 -52 180 -121 216 -121
20 0 24 -15 8 -25 -6 -4 -65 -79 -131 -168 -67 -89 -318 -393 -558 -675 l-436
-513 -5 -715 -5 -714 -35 52 c-316 483 -531 1022 -625 1572 -79 468 -77 961 6
1426 265 1473 1327 2693 2751 3159 431 141 812 202 1264 202 l221 1 31 43 c33
47 89 89 149 111 59 22 167 13 229 -19z m1245 -2874 c136 -60 204 -227 153
-376 -33 -97 -133 -175 -244 -192 l-45 -7 -142 117 -143 117 0 62 c0 93 24
151 89 216 69 69 127 92 221 86 37 -1 85 -12 111 -23z m-3844 -73 c109 -48
175 -150 175 -273 l0 -70 -110 -110 c-110 -110 -110 -110 -165 -115 -88 -7
-161 21 -228 87 -233 233 26 614 328 481z m3288 -305 c94 -31 144 -62 218
-134 64 -61 114 -137 146 -219 21 -52 21 -56 5 -160 -8 -59 -25 -145 -36 -192
-52 -215 -110 -266 -292 -259 -62 3 -82 1 -70 -6 193 -113 273 -191 258 -252
-12 -49 -59 -145 -123 -251 -34 -57 -60 -106 -58 -109 3 -2 49 37 102 88 84
81 150 166 220 284 9 16 31 7 213 -84 233 -117 216 -90 148 -236 -46 -96 -133
-220 -211 -297 l-47 -48 -458 0 -459 0 -24 -52 c-38 -82 -82 -134 -157 -189
-38 -28 -72 -60 -76 -71 -17 -55 -171 -178 -223 -178 -25 0 -44 53 -39 111 l3
42 -78 14 c-42 7 -113 27 -157 44 -76 29 -249 133 -265 160 -5 8 -4 10 3 5 9
-5 12 39 12 173 0 140 3 181 13 181 7 0 40 16 73 36 l61 36 -5 72 c-5 85 11
126 61 156 70 43 118 13 147 -92 l17 -63 52 79 c108 166 108 291 0 346 l-42
22 7 76 c22 238 98 517 180 656 63 108 157 185 313 257 195 91 401 110 568 54z
m-2400 -91 c192 -47 357 -201 425 -398 35 -103 49 -197 75 -501 l6 -71 -34
-16 c-39 -19 -67 -69 -67 -120 1 -50 33 -112 91 -173 l52 -55 18 29 c37 60 90
76 155 45 63 -30 79 -94 44 -173 -24 -51 -21 -55 68 -92 l52 -21 0 -177 0
-177 -92 -36 c-153 -60 -233 -79 -358 -85 l-115 -6 9 -84 c12 -108 1 -157 -35
-161 -39 -5 -144 71 -195 141 -50 68 -67 119 -62 191 2 44 -2 58 -31 104 l-34
52 -522 0 -521 0 -81 83 c-109 112 -242 324 -217 347 9 7 162 60 176 60 3 0
20 -24 36 -53 40 -72 157 -210 229 -273 75 -66 202 -158 208 -152 3 3 -38 71
-90 153 -119 184 -125 195 -125 242 1 78 26 110 199 248 88 71 159 130 157
132 -2 2 -48 -8 -102 -22 -130 -34 -302 -45 -338 -21 -36 23 -45 45 -57 136
-7 56 -6 126 1 228 11 140 13 150 47 212 49 89 203 240 309 303 101 60 242
121 341 148 144 40 253 43 378 13z m3486 -1455 l201 -100 -53 -57 c-29 -31
-77 -83 -107 -114 l-53 -58 -145 0 -144 0 25 49 c42 83 65 186 65 288 0 51 2
93 5 93 3 0 96 -45 206 -101z m-4873 -13 c13 -116 38 -193 87 -266 l34 -50
-162 0 -162 0 -135 135 c-92 92 -129 136 -119 140 50 19 426 144 435 144 6 1
15 -41 22 -103z"/>
<path d="M5815 5514 c-47 -12 -49 -13 -31 -32 22 -25 20 -84 -4 -115 -27 -34
-71 -43 -112 -23 -17 9 -33 14 -36 12 -2 -3 -7 -25 -9 -51 -16 -136 92 -255
230 -255 99 0 172 47 213 135 67 143 -27 310 -186 328 -25 3 -54 3 -65 1z"/>
<path d="M3970 5513 c-8 -2 -20 -6 -27 -8 -9 -3 -9 -11 2 -32 19 -35 19 -57 0
-92 -20 -40 -68 -58 -109 -42 -48 19 -49 18 -56 -22 -17 -95 33 -194 120 -240
48 -25 64 -28 121 -25 262 14 306 378 55 453 -50 15 -79 17 -106 8z"/>
</g>
</svg>
