<svg xmlns="http://www.w3.org/2000/svg" width="1365.333" height="1365.333" viewBox="0 0 1024 1024" preserveAspectRatio="xMidYMid meet" xmlns:v="https://vecta.io/nano"><path d="M485.5.6c-21.1 1.6-32.9 2.8-45 4.5C247.7 32.5 87.3 166.3 26.1 351 14 387.3 5.8 426.9 1.8 467.5c-1.6 16.9-1.6 72.1 0 89C13.2 673.5 60 778.2 138.5 862c116.8 124.8 289.7 183.3 458 154.9 52.4-8.8 105.1-26.4 151.5-50.6 192.6-100.4 300.9-310.5 271-525.3-14.6-104.3-61.7-202.7-133.6-279.1C798.8 69.9 684.7 14.2 558 2 546.5.9 494.9-.1 485.5.6zm88.1 88.7c6.2 3.1 11.9 9.5 14.1 15.7l1.6 4.5 19.1 4.7c93.3 22.9 173.9 75.9 231.3 152.3 47 62.6 75.8 140.3 80.9 218.8l.7 10.8-9.2-.3-9.2-.3-5-12.5c-10.7-26.9-26.1-56.2-42.6-81.3-18.4-27.9-39.7-52.4-61.3-70.2-5.2-4.4-9.4-8.4-9.4-8.9.1-.6 1.4-5.2 2.8-10.1 5.2-17.4 4.5-37.4-1.9-56.9-9.9-30.4-26.9-50.7-52.9-63-17.6-8.4-32.8-12-69.1-16.1-31.1-3.5-37.1-4.4-43.5-6.2-7.8-2.2-15-5.6-18.7-8.7l-3.2-2.7-6.3 4.7c-7.4 5.4-16.4 10.1-26.5 13.7-8.1 2.9-17.9 5.6-21.6 5.9l-2.5.2 3.1 4.6c14.6 21.5 38.2 36.1 68.9 42.4 4.2.9 19.2 2.9 33.5 4.6 40.7 4.8 53.7 7.6 63.8 13.4 11.5 6.8 19.5 22.5 19.5 38.2v7.3l-8.6-2.9c-20.9-7.1-46.1-10.4-78.4-10.4-12.4 0-27.7.6-34 1.3-61.2 6.7-112.5 29.1-153 66.6-6.5 6.1-6.5 6.1-19.3 9.3a210.81 210.81 0 0 0-74.6 35.2l-7.8 5.7-1.9-5.5c-2.5-7.5-7.9-15.6-14.6-21.9-24.4-22.9-63.3-17.6-82 11.1-5.6 8.7-8 17.1-8 28.6 0 16.2 5.6 28.8 17.8 39.9 5.7 5.2 18 12.1 21.6 12.1 2 0 2.4 1.5.8 2.5-.6.4-6.5 7.9-13.1 16.8-6.7 8.9-31.8 39.3-55.8 67.5l-43.6 51.3-.5 71.5-.5 71.4-3.5-5.2c-31.6-48.3-53.1-102.2-62.5-157.2-7.9-46.8-7.7-96.1.6-142.6 26.5-147.3 132.7-269.3 275.1-315.9 43.1-14.1 81.2-20.2 126.4-20.2l22.1-.1 3.1-4.3c3.3-4.7 8.9-8.9 14.9-11.1 5.9-2.2 16.7-1.3 22.9 1.9zm124.5 287.4c13.6 6 20.4 22.7 15.3 37.6-3.3 9.7-13.3 17.5-24.4 19.2l-4.5.7-14.2-11.7-14.3-11.7v-6.2c0-9.3 2.4-15.1 8.9-21.6 6.9-6.9 12.7-9.2 22.1-8.6 3.7.1 8.5 1.2 11.1 2.3zM313.7 384c10.9 4.8 17.5 15 17.5 27.3v7l-11 11c-11 11-11 11-16.5 11.5-8.8.7-16.1-2.1-22.8-8.7-23.3-23.3 2.6-61.4 32.8-48.1zm328.8 30.5c9.4 3.1 14.4 6.2 21.8 13.4 6.4 6.1 11.4 13.7 14.6 21.9 2.1 5.2 2.1 5.6.5 16-.8 5.9-2.5 14.5-3.6 19.2-5.2 21.5-11 26.6-29.2 25.9-6.2-.3-8.2-.1-7 .6 19.3 11.3 27.3 19.1 25.8 25.2-1.2 4.9-5.9 14.5-12.3 25.1-3.4 5.7-6 10.6-5.8 10.9.3.2 4.9-3.7 10.2-8.8 8.4-8.1 15-16.6 22-28.4.9-1.6 3.1-.7 21.3 8.4 23.3 11.7 21.6 9 14.8 23.6-4.6 9.6-13.3 22-21.1 29.7l-4.7 4.8H644h-45.9l-2.4 5.2c-3.8 8.2-8.2 13.4-15.7 18.9-3.8 2.8-7.2 6-7.6 7.1-1.7 5.5-17.1 17.8-22.3 17.8-2.5 0-4.4-5.3-3.9-11.1l.3-4.2-7.8-1.4c-4.2-.7-11.3-2.7-15.7-4.4-7.6-2.9-24.9-13.3-26.5-16-.5-.8-.4-1 .3-.5.9.5 1.2-3.9 1.2-17.3 0-14 .3-18.1 1.3-18.1.7 0 4-1.6 7.3-3.6l6.1-3.6-.5-7.2c-.5-8.5 1.1-12.6 6.1-15.6 7-4.3 11.8-1.3 14.7 9.2l1.7 6.3 5.2-7.9c10.8-16.6 10.8-29.1 0-34.6l-4.2-2.2.7-7.6c2.2-23.8 9.8-51.7 18-65.6 6.3-10.8 15.7-18.5 31.3-25.7 19.5-9.1 40.1-11 56.8-5.4zm-240 9.1c19.2 4.7 35.7 20.1 42.5 39.8 3.5 10.3 4.9 19.7 7.5 50.1l.6 7.1-3.4 1.6c-3.9 1.9-6.7 6.9-6.7 12 .1 5 3.3 11.2 9.1 17.3l5.2 5.5 1.8-2.9c3.7-6 9-7.6 15.5-4.5 6.3 3 7.9 9.4 4.4 17.3-2.4 5.1-2.1 5.5 6.8 9.2l5.2 2.1v17.7 17.7l-9.2 3.6c-15.3 6-23.3 7.9-35.8 8.5l-11.5.6.9 8.4c1.2 10.8.1 15.7-3.5 16.1-3.9.5-14.4-7.1-19.5-14.1-5-6.8-6.7-11.9-6.2-19.1.2-4.4-.2-5.8-3.1-10.4l-3.4-5.2h-52.2-52.1l-8.1-8.3c-10.9-11.2-24.2-32.4-21.7-34.7.9-.7 16.2-6 17.6-6 .3 0 2 2.4 3.6 5.3 4 7.2 15.7 21 22.9 27.3 7.5 6.6 20.2 15.8 20.8 15.2.3-.3-3.8-7.1-9-15.3-11.9-18.4-12.5-19.5-12.5-24.2.1-7.8 2.6-11 19.9-24.8 8.8-7.1 15.9-13 15.7-13.2s-4.8.8-10.2 2.2c-13 3.4-30.2 4.5-33.8 2.1-3.6-2.3-4.5-4.5-5.7-13.6-.7-5.6-.6-12.6.1-22.8 1.1-14 1.3-15 4.7-21.2 4.9-8.9 20.3-24 30.9-30.3 10.1-6 24.2-12.1 34.1-14.8 14.4-4 25.3-4.3 37.8-1.3zm348.6 145.5l20.1 10-5.3 5.7-10.7 11.4-5.3 5.8h-14.5H721l2.5-4.9c4.2-8.3 6.5-18.6 6.5-28.8 0-5.1.2-9.3.5-9.3s9.6 4.5 20.6 10.1zm-487.3 1.3c1.3 11.6 3.8 19.3 8.7 26.6l3.4 5h-16.2-16.2L230 588.5c-9.2-9.2-12.9-13.6-11.9-14 5-1.9 42.6-14.4 43.5-14.4.6-.1 1.5 4.1 2.2 10.3zm317.7-97.8c-4.7 1.2-4.9 1.3-3.1 3.2 2.2 2.5 2 8.4-.4 11.5-2.7 3.4-7.1 4.3-11.2 2.3-1.7-.9-3.3-1.4-3.6-1.2-.2.3-.7 2.5-.9 5.1-1.6 13.6 9.2 25.5 23 25.5 9.9 0 17.2-4.7 21.3-13.5 6.7-14.3-2.7-31-18.6-32.8-2.5-.3-5.4-.3-6.5-.1zm-184.5.1l-2.7.8c-.9.3-.9 1.1.2 3.2 1.9 3.5 1.9 5.7 0 9.2-2 4-6.8 5.8-10.9 4.2-4.8-1.9-4.9-1.8-5.6 2.2-1.7 9.5 3.3 19.4 12 24 4.8 2.5 6.4 2.8 12.1 2.5 26.2-1.4 30.6-37.8 5.5-45.3-5-1.5-7.9-1.7-10.6-.8z"/></svg>